<svg width="16" height="18" viewBox="0 0 16 18" fill="none" xmlns="http://www.w3.org/2000/svg">
<g clip-path="url(#clip0_45_2)">
<path d="M8.00041 0C7.36827 0 6.85756 0.502734 6.85756 1.125V1.8C4.25041 2.32031 2.28613 4.59141 2.28613 7.3125V7.97344C2.28613 9.62578 1.66827 11.2219 0.553986 12.4594L0.289701 12.7512C-0.0102993 13.0816 -0.0817279 13.5563 0.100415 13.9605C0.282558 14.3648 0.693272 14.625 1.14327 14.625H14.8576C15.3076 14.625 15.7147 14.3648 15.9004 13.9605C16.0861 13.5563 16.0111 13.0816 15.7111 12.7512L15.4468 12.4594C14.3326 11.2219 13.7147 9.6293 13.7147 7.97344V7.3125C13.7147 4.59141 11.7504 2.32031 9.14327 1.8V1.125C9.14327 0.502734 8.63256 0 8.00041 0ZM9.61827 17.3426C10.0468 16.9207 10.2861 16.3477 10.2861 15.75H8.00041H5.7147C5.7147 16.3477 5.95399 16.9207 6.38256 17.3426C6.81113 17.7645 7.39327 18 8.00041 18C8.60756 18 9.1897 17.7645 9.61827 17.3426Z" fill="#5B6871"/>
</g>
<defs>
<clipPath id="clip0_45_2">
<rect width="16" height="18" fill="white"/>
</clipPath>
</defs>
</svg>
