<svg width="15" height="15" viewBox="0 0 15 15" fill="none" xmlns="http://www.w3.org/2000/svg">
<g clip-path="url(#clip0_45_9)">
<path d="M7.5 15C9.48912 15 11.3968 14.2098 12.8033 12.8033C14.2098 11.3968 15 9.48912 15 7.5C15 5.51088 14.2098 3.60322 12.8033 2.1967C11.3968 0.790176 9.48912 0 7.5 0C5.51088 0 3.60322 0.790176 2.1967 2.1967C0.790176 3.60322 0 5.51088 0 7.5C0 9.48912 0.790176 11.3968 2.1967 12.8033C3.60322 14.2098 5.51088 15 7.5 15ZM4.97461 4.84277C5.20605 4.18945 5.82715 3.75 6.52148 3.75H8.22949C9.25195 3.75 10.0781 4.5791 10.0781 5.59863C10.0781 6.26074 9.72363 6.87305 9.14941 7.2041L8.20312 7.74609C8.19727 8.12695 7.88379 8.4375 7.5 8.4375C7.11035 8.4375 6.79688 8.12402 6.79688 7.73438V7.33887C6.79688 7.08691 6.93164 6.85547 7.15137 6.72949L8.44922 5.98535C8.58691 5.90625 8.67188 5.75977 8.67188 5.60156C8.67188 5.35547 8.47266 5.15918 8.22949 5.15918H6.52148C6.42188 5.15918 6.33398 5.2207 6.30176 5.31445L6.29004 5.34961C6.16113 5.71582 5.75684 5.90625 5.39355 5.77734C5.03027 5.64844 4.83691 5.24414 4.96582 4.88086L4.97754 4.8457L4.97461 4.84277ZM6.5625 10.3125C6.5625 10.0639 6.66127 9.8254 6.83709 9.64959C7.0129 9.47377 7.25136 9.375 7.5 9.375C7.74864 9.375 7.9871 9.47377 8.16291 9.64959C8.33873 9.8254 8.4375 10.0639 8.4375 10.3125C8.4375 10.5611 8.33873 10.7996 8.16291 10.9754C7.9871 11.1512 7.74864 11.25 7.5 11.25C7.25136 11.25 7.0129 11.1512 6.83709 10.9754C6.66127 10.7996 6.5625 10.5611 6.5625 10.3125Z" fill="#5B6871"/>
</g>
<defs>
<clipPath id="clip0_45_9">
<rect width="15" height="15" fill="white"/>
</clipPath>
</defs>
</svg>
