<svg width="15" height="15" viewBox="0 0 15 15" fill="none" xmlns="http://www.w3.org/2000/svg">
<g clip-path="url(#clip0_45_12)">
<path d="M14.5283 4.88086C14.6221 5.13574 14.543 5.41992 14.3408 5.60156L13.0723 6.75586C13.1045 6.99902 13.1221 7.24805 13.1221 7.5C13.1221 7.75195 13.1045 8.00098 13.0723 8.24414L14.3408 9.39844C14.543 9.58008 14.6221 9.86426 14.5283 10.1191C14.3994 10.4678 14.2441 10.8018 14.0654 11.124L13.9277 11.3613C13.7344 11.6836 13.5176 11.9883 13.2803 12.2754C13.1074 12.4863 12.8203 12.5566 12.5625 12.4746L10.9307 11.9561C10.5381 12.2578 10.1045 12.5098 9.64161 12.7002L9.2754 14.373C9.21681 14.6396 9.01173 14.8506 8.7422 14.8945C8.3379 14.9619 7.92188 14.9971 7.49708 14.9971C7.07227 14.9971 6.65626 14.9619 6.25196 14.8945C5.98243 14.8506 5.77735 14.6396 5.71876 14.373L5.35255 12.7002C4.88966 12.5098 4.45606 12.2578 4.06348 11.9561L2.43458 12.4775C2.17677 12.5596 1.88966 12.4863 1.7168 12.2783C1.4795 11.9912 1.2627 11.6865 1.06934 11.3643L0.931648 11.127C0.752937 10.8047 0.597664 10.4707 0.468758 10.1221C0.375008 9.86719 0.454109 9.58301 0.656258 9.40137L1.92481 8.24707C1.89259 8.00098 1.87501 7.75195 1.87501 7.5C1.87501 7.24805 1.89259 6.99902 1.92481 6.75586L0.656258 5.60156C0.454109 5.41992 0.375008 5.13574 0.468758 4.88086C0.597664 4.53223 0.752937 4.19824 0.931648 3.87598L1.06934 3.63867C1.2627 3.31641 1.4795 3.01172 1.7168 2.72461C1.88966 2.51367 2.17677 2.44336 2.43458 2.52539L4.06641 3.04395C4.45899 2.74219 4.89259 2.49023 5.35548 2.2998L5.72169 0.626953C5.78028 0.360352 5.98536 0.149414 6.25489 0.105469C6.65919 0.0351562 7.0752 0 7.50001 0C7.92481 0 8.34083 0.0351562 8.74513 0.102539C9.01466 0.146484 9.21974 0.357422 9.27833 0.624023L9.64454 2.29688C10.1074 2.4873 10.541 2.73926 10.9336 3.04102L12.5654 2.52246C12.8233 2.44043 13.1104 2.51367 13.2832 2.72168C13.5205 3.00879 13.7373 3.31348 13.9307 3.63574L14.0684 3.87305C14.2471 4.19531 14.4024 4.5293 14.5313 4.87793L14.5283 4.88086ZM7.50001 9.84375C8.12161 9.84375 8.71775 9.59682 9.15729 9.15728C9.59683 8.71774 9.84376 8.1216 9.84376 7.5C9.84376 6.8784 9.59683 6.28226 9.15729 5.84272C8.71775 5.40318 8.12161 5.15625 7.50001 5.15625C6.87841 5.15625 6.28226 5.40318 5.84273 5.84272C5.40319 6.28226 5.15626 6.8784 5.15626 7.5C5.15626 8.1216 5.40319 8.71774 5.84273 9.15728C6.28226 9.59682 6.87841 9.84375 7.50001 9.84375Z" fill="#5B6871"/>
</g>
<defs>
<clipPath id="clip0_45_12">
<rect width="15" height="15" fill="white"/>
</clipPath>
</defs>
</svg>
